<svg width="48pt" height="48pt" version="1.1" viewBox="0 0 700 550" xmlns="http://www.w3.org/2000/svg" xmlns:xlink="http://www.w3.org/1999/xlink">
	<g>
		<path d="m258.5 431.54c0 50.512 40.992 91.727 91.504 91.727 50.398 0 91.504-41.105 91.504-91.727 0-50.625-40.992-91.727-91.504-91.727s-91.504 41.215-91.504 91.727zm169.68 0c0 43.344-35.168 78.512-78.289 78.512-43.117 0-78.285-35.168-78.285-78.512s35.168-78.512 78.289-78.512c43.117 0 78.285 35.168 78.285 78.512z" />
		<path d="m608.5 79.742c2.1289-2.1289 2.5742-5.2656 1.1211-7.8398l-38.191-68.543c-0.11328-0.11328-0.11328-0.22266-0.22266-0.33594 0-0.11328-0.11328-0.11328-0.11328-0.22266-0.22266-0.33594-0.44922-0.55859-0.67188-0.89453l-0.11328-0.11328c-0.22266-0.22266-0.55859-0.55859-0.89453-0.67188h-0.11328c-0.33594-0.22266-0.67188-0.33594-0.89453-0.55859-0.11328 0-0.11328-0.11328-0.22266-0.11328-0.33594-0.11328-0.67188-0.22266-1.0078-0.33594h-0.22266c-0.11328 0-0.22266 0-0.33594-0.11328-0.33594 0-0.55859-0.11328-0.89453-0.11328h-431.43c-0.33594 0-0.55859 0-0.89453 0.11328-0.11328 0-0.22266 0-0.33594 0.11328h-0.22266c-0.33594 0.11328-0.67188 0.22266-1.0078 0.33594-0.11328 0-0.11328 0.11328-0.22266 0.11328-0.33594 0.11328-0.67188 0.33594-0.89453 0.55859h-0.11328c-0.33594 0.22266-0.55859 0.44922-0.89453 0.67188l-0.11328 0.11328c-0.22266 0.33594-0.44922 0.67188-0.67188 0.89453 0 0.11328-0.11328 0.11328-0.11328 0.22266-0.11328 0.11328-0.11328 0.22266-0.22266 0.33594l-38.078 68.543c-1.457 2.5742-1.0078 5.8242 1.1211 7.8398l197.89 198.58-9.0703 45.246c-35.281 22.848-58.688 62.719-58.688 107.97 0 70.785 57.457 128.46 128.13 128.46s128.13-57.68 128.13-128.46c0-45.246-23.406-85.008-58.688-107.97l-8.9609-45.137zm-205.3 187.15-43.902-44.016 204.96-205.41 31.359 56.449zm91.504-198.35h-289.41l-55.105-55.328h399.73zm-13.215 13.105-131.49 131.94-131.49-131.94zm-345.75-64.289 251.55 252.11h-87.809l-195.1-195.55zm329.17 414.18c0 63.617-51.633 115.25-115.02 115.25-63.391 0.003906-115.02-51.742-115.02-115.25 0-63.617 51.633-115.25 115.02-115.25 63.395 0 115.02 51.633 115.02 115.25zm-115.02-128.46c-19.375 0-37.855 4.3672-54.32 12.098l6.4961-32.48h95.648l6.4961 32.48c-16.465-7.7266-34.832-12.098-54.32-12.098z" />
		<path d="m344.06 371.17-15.121 30.801-33.938 4.9297c-2.4648 0.33594-4.4805 2.1289-5.2656 4.4805-0.78516 2.3516-0.11328 5.0391 1.6797 6.7188l24.527 23.969-5.8242 33.824c-0.44922 2.4648 0.55859 4.9297 2.5742 6.4961 2.0156 1.457 4.7031 1.6797 6.9453 0.44922l30.352-16.016 30.352 16.016c1.0078 0.55859 2.0156 0.78516 3.0234 0.78516 1.3438 0 2.6875-0.44922 3.8086-1.2305 2.0156-1.457 3.0234-3.9219 2.5742-6.4961l-5.8242-33.824 24.527-23.969c1.793-1.793 2.4648-4.3672 1.6797-6.7188-0.78516-2.3516-2.8008-4.1445-5.2656-4.4805l-33.938-4.9297-15.121-30.801c-1.1211-2.2383-3.3594-3.6953-5.9375-3.6953-2.4453-0.003906-4.6875 1.4531-5.8086 3.6914zm16.691 39.762c1.0078 1.9023 2.8008 3.2461 4.9297 3.5859l24.191 3.4727-17.477 17.133c-1.5664 1.5664-2.2383 3.6953-1.9023 5.8242l4.1445 24.078-21.617-11.422c-1.0078-0.55859-2.0156-0.78516-3.0234-0.78516s-2.1289 0.22266-3.0234 0.78516l-21.617 11.422 4.1445-24.078c0.33594-2.1289-0.33594-4.3672-1.9023-5.8242l-17.473-17.137 24.191-3.4727c2.1289-0.33594 4.0312-1.6797 4.9297-3.5859l10.754-21.953z" />
	</g>
</svg>
