<svg width="48pt" height="48pt" version="1.1" viewBox="0 0 700 550" xmlns="http://www.w3.org/2000/svg" xmlns:xlink="http://www.w3.org/1999/xlink">
	<g>
		<path d="m610.94 353.77-155.94-225.26v-23.512h43.75c3.2266 0 6.1953-1.7773 7.7148-4.6211 1.5234-2.8477 1.3555-6.3008-0.43359-8.9844l-13.52-20.285 12.426-12.426v0.003906c2.5-2.5039 3.25-6.2656 1.8945-9.5352-1.3555-3.2695-4.543-5.4023-8.082-5.4023h-52.5c-4.832 0-8.75 3.918-8.75 8.75v75.906l-38.746 53.277-120.5-160.68c-1.7578-2.1172-4.3281-3.3906-7.0781-3.5-2.7734 0.027344-5.3711 1.3672-7 3.6133l-48.125 66.5-25.465-31.832c-1.6719-2.1523-4.2734-3.3711-7-3.2812-2.7188 0.0625-5.2578 1.3789-6.875 3.5703l-96.25 131.25 14.121 10.359 89.469-122.04 21.332 26.66-124.96 172.57 14.176 10.273 93.203-128.72 24.77 24.77v0.003906c1.6367 1.6445 3.8672 2.5703 6.1875 2.5625h0.48828c2.4844-0.13672 4.7891-1.3242 6.3438-3.2656l27.949-34.93 19.469 25.945c1.7227 2.0938 4.2891 3.3047 7 3.3047s5.2773-1.2109 7-3.3047l20.195-26.934 10.367 10.367v0.003906c3.418 3.4141 8.957 3.4141 12.375 0l15.363-15.363 42.691 56.875-88.82 122.16 14.156 10.289 75.023-103.14 25.461 25.461c3.418 3.418 8.957 3.418 12.375 0l28.812-28.84 20.062 20.062v0.003906c3.418 3.4141 8.957 3.4141 12.375 0l14.875-14.875 74.742 107.96-132.33 23.371c-4.1758 0.73828-7.2227 4.3672-7.2266 8.6094v45.5l-106.97 24.719c-3.9727 0.91797-6.7852 4.457-6.7812 8.5312v56.176l-56.875 32.48 8.6797 15.191 61.25-35v-0.003906c2.7383-1.5469 4.4375-4.4453 4.4453-7.5938v-54.25l106.97-24.684c3.9844-0.92188 6.8008-4.4766 6.7812-8.5664v-45.16l133-23.477 6.7188 9.7109-80.98 24.289v0.003907c-4.4766 1.3438-7.1055 5.9648-5.9766 10.5l7.6992 30.801-32.297 40.363h0.003907c-1.2422 1.5508-1.918 3.4805-1.918 5.4688v70h17.5v-66.93l33.082-41.352c1.707-2.1328 2.3164-4.9375 1.6562-7.5859l-6.7383-26.898 79.504-23.852c3.7031-1.1055 6.2461-4.5156 6.2461-8.3828v-8.75c0-1.7812-0.54297-3.5156-1.5586-4.9805zm-155.94-292.52h22.629l-2.5625 2.5625h-0.003906c-2.9492 2.9492-3.4062 7.5742-1.0938 11.043l8.4375 12.645h-27.406zm-131.25 75.129-11.312-11.312v-0.003906c-1.7812-1.8125-4.2734-2.7422-6.8086-2.5352-2.5352 0.18359-4.8633 1.4609-6.3789 3.5l-19.25 25.637-19.25-25.664c-1.625-2.1641-4.1562-3.457-6.8633-3.5s-5.2812 1.168-6.9688 3.2812l-28.875 36.121-19.336-19.336-3.125 3.125 75.789-104.69 63.324 84.43zm157.5 87.5-20.062-20.062v-0.003906c-3.418-3.4141-8.957-3.4141-12.375 0l-28.812 28.816-21.227-21.23 47.293-65.031 46.105 66.586z" />
		<path d="m277.44 483.81-32.438-32.434v-27.758l28.812 28.812 12.371-12.371-41.184-41.184v-27.758l20.062 20.062 12.371-12.371-32.434-32.434v-27.758l28.812 28.812 12.371-12.371-43.75-43.75h0.003906c-3.418-3.4141-8.957-3.4141-12.375 0l-43.75 43.75 12.371 12.371 28.816-28.812v27.754l-32.438 32.438 12.371 12.371 20.066-20.062v27.754l-41.188 41.188 12.371 12.371 28.816-28.812v27.754l-32.438 32.438 12.371 12.371 20.066-20.062v66.379h17.5v-66.379l20.062 20.062z" />
		<path d="m597.56 461.19 12.371-12.371-35-35 0.003906-0.003906c-3.418-3.4141-8.957-3.4141-12.375 0l-35 35 12.371 12.371 20.066-20.062v27.754l-32.438 32.438 12.371 12.371 20.066-20.062v48.879h17.5v-48.879l20.062 20.062 12.371-12.371-32.434-32.434v-27.758z" />
		<path d="m148.75 432.37 20.062 20.062 12.371-12.371-32.434-32.434v-27.758l28.812 28.812 12.371-12.371-41.184-41.184v-27.758l20.062 20.062 12.371-12.371-32.434-32.434v-27.758l28.812 28.812 12.371-12.371-43.75-43.75h0.003906c-3.418-3.4141-8.957-3.4141-12.375 0l-43.75 43.75 12.371 12.371 28.816-28.812v27.754l-32.438 32.438 12.371 12.371 20.066-20.062v27.754l-41.188 41.188 12.371 12.371 28.816-28.812v27.754l-32.438 32.438 12.371 12.371 20.066-20.062v19.004l-41.188 41.188 12.371 12.371 28.816-28.812v66.379h17.5v-66.379l28.812 28.812 12.371-12.371-41.184-41.184z" />
	</g>
</svg>
