<svg width="48pt" height="48pt" version="1.1" viewBox="0 0 700 550" xmlns="http://www.w3.org/2000/svg">
	<path
		d="m140 501.56v-398.89c0-18.043 14.625-32.668 32.668-32.668h354.66c18.043 0 32.668 14.625 32.668 32.668l-0.085938 398.79c0 6.4453 5.332 11.777 11.777 11.777 6.4414 0 11.555-5.332 11.555-11.777l0.085937-398.79c0-30.93-25.07-56-56-56h-354.66c-30.93 0-56 25.07-56 56v398.89c0 6.4453 5.2227 11.668 11.664 11.668 6.4453 0 11.668-5.2227 11.668-11.668zm218-201.36-0.71875 0.57422c-4.2578 3.4062-10.312 3.4062-14.57 0l-0.71875-0.57422c-39.363-31.492-68.789-73.688-84.73-121.52-1.7578-5.2734 0.44922-11.059 5.2812-13.816l81.664-46.668c3.5859-2.0508 7.9922-2.0508 11.578 0l81.668 46.668c4.8281 2.7578 7.0352 8.543 5.2773 13.816-15.941 47.828-45.367 90.023-84.73 121.52zm-8.0039-158.43 67.406 38.52c-14.078 37.199-37.25 70.289-67.406 96.242-30.156-25.953-53.328-59.043-67.406-96.242zm-151.67 231.56h23.336c6.4414 0 11.664-5.2227 11.664-11.664 0-6.4453-5.2227-11.668-11.664-11.668h-23.336c-6.4414 0-11.664 5.2227-11.664 11.668 0 6.4414 5.2227 11.664 11.664 11.664zm23.336 70h-23.336c-6.4414 0-11.664-5.2227-11.664-11.664 0-6.4453 5.2227-11.668 11.664-11.668h23.336c6.4414 0 11.664 5.2227 11.664 11.668 0 6.4414-5.2227 11.664-11.664 11.664zm-23.336 70h23.336c6.4414 0 11.664-5.2227 11.664-11.664 0-6.4453-5.2227-11.668-11.664-11.668h-23.336c-6.4414 0-11.664 5.2227-11.664 11.668 0 6.4414 5.2227 11.664 11.664 11.664zm303.34-140h-233.34c-6.4414 0-11.664-5.2227-11.664-11.664 0-6.4453 5.2227-11.668 11.664-11.668h233.34c6.4414 0 11.664 5.2227 11.664 11.668 0 6.4414-5.2227 11.664-11.664 11.664zm-233.34 70h233.34c6.4414 0 11.664-5.2227 11.664-11.664 0-6.4453-5.2227-11.668-11.664-11.668h-233.34c-6.4414 0-11.664 5.2227-11.664 11.668 0 6.4414 5.2227 11.664 11.664 11.664zm233.34 70h-233.34c-6.4414 0-11.664-5.2227-11.664-11.664 0-6.4453 5.2227-11.668 11.664-11.668h233.34c6.4414 0 11.664 5.2227 11.664 11.668 0 6.4414-5.2227 11.664-11.664 11.664z"
		fill-rule="evenodd"
	/>
</svg>
